<?xml version="1.0" encoding="UTF-8" standalone="no"?>
<!DOCTYPE svg PUBLIC "-//W3C//DTD SVG 1.1//EN"
 "http://www.w3.org/Graphics/SVG/1.1/DTD/svg11.dtd">
<!-- Generated by graphviz version 2.42.1 (0)
 -->
<!-- Title: %3 Pages: 1 -->
<svg width="435pt" height="476pt"
 viewBox="0.00 0.00 434.95 476.00" xmlns="http://www.w3.org/2000/svg" xmlns:xlink="http://www.w3.org/1999/xlink">
<g id="graph0" class="graph" transform="scale(1 1) rotate(0) translate(4 472)">
<title>%3</title>
<polygon fill="white" stroke="transparent" points="-4,4 -4,-472 430.95,-472 430.95,4 -4,4"/>
<!-- button -->
<g id="node1" class="node">
<title>button</title>
<polygon fill="none" stroke="black" points="126,-396 72,-396 72,-360 126,-360 126,-396"/>
<text text-anchor="middle" x="99" y="-374.3" font-family="Times,serif" font-size="14.00">button</text>
</g>
<!-- Xn -->
<g id="node2" class="node">
<title>Xn</title>
<ellipse fill="none" stroke="black" cx="27" cy="-450" rx="27" ry="18"/>
<text text-anchor="middle" x="27" y="-446.3" font-family="Times,serif" font-size="14.00">Xn</text>
</g>
<!-- Xn&#45;&gt;button -->
<g id="edge1" class="edge">
<title>Xn&#45;&gt;button</title>
<path fill="none" stroke="black" d="M41.57,-434.83C50.92,-425.75 63.3,-413.71 74.17,-403.14"/>
<polygon fill="black" stroke="black" points="76.67,-405.59 81.4,-396.11 71.79,-400.57 76.67,-405.59"/>
</g>
<!-- i2c -->
<g id="node5" class="node">
<title>i2c</title>
<polygon fill="none" stroke="black" points="201,-396 147,-396 147,-360 201,-360 201,-396"/>
<text text-anchor="middle" x="174" y="-374.3" font-family="Times,serif" font-size="14.00">i2c</text>
</g>
<!-- Xn&#45;&gt;i2c -->
<g id="edge4" class="edge">
<title>Xn&#45;&gt;i2c</title>
<path fill="none" stroke="black" d="M48.38,-438.82C71.77,-427.68 109.68,-409.63 137.74,-396.27"/>
<polygon fill="black" stroke="black" points="139.32,-399.39 146.85,-391.93 136.31,-393.07 139.32,-399.39"/>
</g>
<!-- Yn -->
<g id="node3" class="node">
<title>Yn</title>
<ellipse fill="none" stroke="black" cx="99" cy="-450" rx="27" ry="18"/>
<text text-anchor="middle" x="99" y="-446.3" font-family="Times,serif" font-size="14.00">Yn</text>
</g>
<!-- Yn&#45;&gt;button -->
<g id="edge2" class="edge">
<title>Yn&#45;&gt;button</title>
<path fill="none" stroke="black" d="M99,-431.7C99,-423.98 99,-414.71 99,-406.11"/>
<polygon fill="black" stroke="black" points="102.5,-406.1 99,-396.1 95.5,-406.1 102.5,-406.1"/>
</g>
<!-- Yn&#45;&gt;i2c -->
<g id="edge5" class="edge">
<title>Yn&#45;&gt;i2c</title>
<path fill="none" stroke="black" d="M114.18,-434.83C123.92,-425.75 136.81,-413.71 148.13,-403.14"/>
<polygon fill="black" stroke="black" points="150.74,-405.49 155.66,-396.11 145.97,-400.38 150.74,-405.49"/>
</g>
<!-- GND -->
<g id="node4" class="node">
<title>GND</title>
<ellipse fill="none" stroke="black" cx="174" cy="-450" rx="29.8" ry="18"/>
<text text-anchor="middle" x="174" y="-446.3" font-family="Times,serif" font-size="14.00">GND</text>
</g>
<!-- GND&#45;&gt;button -->
<g id="edge3" class="edge">
<title>GND&#45;&gt;button</title>
<path fill="none" stroke="black" d="M158.46,-434.5C148.77,-425.45 136.06,-413.59 124.87,-403.15"/>
<polygon fill="black" stroke="black" points="127.13,-400.47 117.43,-396.2 122.36,-405.59 127.13,-400.47"/>
</g>
<!-- GND&#45;&gt;i2c -->
<g id="edge6" class="edge">
<title>GND&#45;&gt;i2c</title>
<path fill="none" stroke="black" d="M174,-431.7C174,-423.98 174,-414.71 174,-406.11"/>
<polygon fill="black" stroke="black" points="177.5,-406.1 174,-396.1 170.5,-406.1 177.5,-406.1"/>
</g>
<!-- interrupt -->
<g id="node6" class="node">
<title>interrupt</title>
<ellipse fill="none" stroke="black" cx="380" cy="-450" rx="42.49" ry="18"/>
<text text-anchor="middle" x="380" y="-446.3" font-family="Times,serif" font-size="14.00">interrupt</text>
</g>
<!-- interrupt&#45;&gt;i2c -->
<g id="edge7" class="edge">
<title>interrupt&#45;&gt;i2c</title>
<path fill="none" stroke="black" d="M347.81,-438.06C310.73,-425.46 249.91,-404.79 210.93,-391.55"/>
<polygon fill="black" stroke="black" points="211.63,-388.09 201.04,-388.19 209.38,-394.72 211.63,-388.09"/>
</g>
<!-- gpio32 -->
<g id="node7" class="node">
<title>gpio32</title>
<polygon fill="none" stroke="black" points="403.5,-396 348.5,-396 348.5,-360 403.5,-360 403.5,-396"/>
<text text-anchor="middle" x="376" y="-374.3" font-family="Times,serif" font-size="14.00">gpio32</text>
</g>
<!-- interrupt&#45;&gt;gpio32 -->
<g id="edge8" class="edge">
<title>interrupt&#45;&gt;gpio32</title>
<path fill="none" stroke="black" d="M379.01,-431.7C378.57,-423.98 378.04,-414.71 377.55,-406.11"/>
<polygon fill="black" stroke="black" points="381.04,-405.89 376.98,-396.1 374.05,-406.29 381.04,-405.89"/>
</g>
<!-- gpio_device -->
<g id="node12" class="node">
<title>gpio_device</title>
<ellipse fill="none" stroke="black" cx="373" cy="-306" rx="53.89" ry="18"/>
<text text-anchor="middle" x="373" y="-302.3" font-family="Times,serif" font-size="14.00">gpio_device</text>
</g>
<!-- gpio32&#45;&gt;gpio_device -->
<g id="edge10" class="edge">
<title>gpio32&#45;&gt;gpio_device</title>
<path fill="none" stroke="black" d="M375.26,-359.7C374.93,-351.98 374.53,-342.71 374.16,-334.11"/>
<polygon fill="black" stroke="black" points="377.66,-333.95 373.73,-324.1 370.66,-334.25 377.66,-333.95"/>
</g>
<!-- kernel -->
<g id="node8" class="node">
<title>kernel</title>
<polygon fill="none" stroke="black" points="367,-252 271,-252 271,-216 367,-216 367,-252"/>
<text text-anchor="middle" x="319" y="-230.3" font-family="Times,serif" font-size="14.00">kernel module</text>
</g>
<!-- external -->
<g id="node13" class="node">
<title>external</title>
<polygon fill="none" stroke="black" points="319,-180 218.62,-162 319,-144 419.38,-162 319,-180"/>
<text text-anchor="middle" x="319" y="-158.3" font-family="Times,serif" font-size="14.00">Is external HID?</text>
</g>
<!-- kernel&#45;&gt;external -->
<g id="edge13" class="edge">
<title>kernel&#45;&gt;external</title>
<path fill="none" stroke="black" d="M319,-215.7C319,-207.98 319,-198.71 319,-190.11"/>
<polygon fill="black" stroke="black" points="322.5,-190.1 319,-180.1 315.5,-190.1 322.5,-190.1"/>
</g>
<!-- input_device -->
<g id="node9" class="node">
<title>input_device</title>
<polygon fill="none" stroke="black" points="418,-36 332,-36 332,0 418,0 418,-36"/>
<text text-anchor="middle" x="375" y="-14.3" font-family="Times,serif" font-size="14.00">input_device</text>
</g>
<!-- usb_hid_device -->
<g id="node10" class="node">
<title>usb_hid_device</title>
<polygon fill="none" stroke="black" points="313.5,-36 212.5,-36 212.5,0 313.5,0 313.5,-36"/>
<text text-anchor="middle" x="263" y="-14.3" font-family="Times,serif" font-size="14.00">usb_hid_device</text>
</g>
<!-- i2c_device -->
<g id="node11" class="node">
<title>i2c_device</title>
<ellipse fill="none" stroke="black" cx="271" cy="-450" rx="48.99" ry="18"/>
<text text-anchor="middle" x="271" y="-446.3" font-family="Times,serif" font-size="14.00">i2c_device</text>
</g>
<!-- i2c_device&#45;&gt;i2c -->
<g id="edge9" class="edge">
<title>i2c_device&#45;&gt;i2c</title>
<path fill="none" stroke="black" d="M249.47,-433.46C236.69,-424.24 220.24,-412.37 205.96,-402.06"/>
<polygon fill="black" stroke="black" points="208.01,-399.22 197.85,-396.21 203.91,-404.9 208.01,-399.22"/>
</g>
<!-- i2c_device&#45;&gt;kernel -->
<g id="edge11" class="edge">
<title>i2c_device&#45;&gt;kernel</title>
<path fill="none" stroke="black" d="M274.85,-431.85C283.17,-394.75 302.89,-306.81 312.92,-262.1"/>
<polygon fill="black" stroke="black" points="316.36,-262.76 315.13,-252.23 309.53,-261.22 316.36,-262.76"/>
</g>
<!-- gpio_device&#45;&gt;kernel -->
<g id="edge12" class="edge">
<title>gpio_device&#45;&gt;kernel</title>
<path fill="none" stroke="black" d="M360.2,-288.41C353.8,-280.12 345.92,-269.89 338.76,-260.62"/>
<polygon fill="black" stroke="black" points="341.34,-258.23 332.46,-252.45 335.8,-262.5 341.34,-258.23"/>
</g>
<!-- yes -->
<g id="node14" class="node">
<title>yes</title>
<ellipse fill="none" stroke="black" cx="283" cy="-90" rx="27" ry="18"/>
<text text-anchor="middle" x="283" y="-86.3" font-family="Times,serif" font-size="14.00">yes</text>
</g>
<!-- external&#45;&gt;yes -->
<g id="edge14" class="edge">
<title>external&#45;&gt;yes</title>
<path fill="none" stroke="black" d="M310.83,-145.12C306.47,-136.64 301.01,-126.02 296.08,-116.43"/>
<polygon fill="black" stroke="black" points="299.07,-114.6 291.39,-107.31 292.85,-117.8 299.07,-114.6"/>
</g>
<!-- no -->
<g id="node15" class="node">
<title>no</title>
<ellipse fill="none" stroke="black" cx="365" cy="-90" rx="27" ry="18"/>
<text text-anchor="middle" x="365" y="-86.3" font-family="Times,serif" font-size="14.00">no</text>
</g>
<!-- external&#45;&gt;no -->
<g id="edge16" class="edge">
<title>external&#45;&gt;no</title>
<path fill="none" stroke="black" d="M329.21,-145.46C335.02,-136.62 342.44,-125.34 349.01,-115.34"/>
<polygon fill="black" stroke="black" points="351.93,-117.26 354.5,-106.98 346.08,-113.41 351.93,-117.26"/>
</g>
<!-- yes&#45;&gt;usb_hid_device -->
<g id="edge15" class="edge">
<title>yes&#45;&gt;usb_hid_device</title>
<path fill="none" stroke="black" d="M278.16,-72.05C275.93,-64.26 273.23,-54.82 270.74,-46.08"/>
<polygon fill="black" stroke="black" points="274.05,-44.93 267.94,-36.28 267.32,-46.85 274.05,-44.93"/>
</g>
<!-- no&#45;&gt;input_device -->
<g id="edge17" class="edge">
<title>no&#45;&gt;input_device</title>
<path fill="none" stroke="black" d="M367.42,-72.05C368.52,-64.35 369.85,-55.03 371.09,-46.36"/>
<polygon fill="black" stroke="black" points="374.58,-46.67 372.53,-36.28 367.65,-45.68 374.58,-46.67"/>
</g>
</g>
</svg>
